# xmcd
#
# Track frame offsets: 
#        150
#        11928
#        28877
#        44263
#        56431
#        69531
#        95362
#        106103
#        130455
#        146845
#        162919
#        176535
#        194418
#        209733
#        228758
#        245631
#        263064
#        274253
#        289112
#        305035
#
# Disc length: 4198 seconds
#
# Revision: 0
# Processed by: cddbd v1.5.2PL0 Copyright (c) Steve Scherf et al.
# Submitted via: ExactAudioCopy v0.99pb5
#
DISCID=33106414
DTITLE=Frank Sinatra  - Entertain Me Box - New York, New York - Disc 1
DTITLE=
DYEAR=1900
DGENRE=
TTITLE0=I've got the World on a String
TTITLE1=You and Me [We Wanted it All]
TTITLE2=The Best is yet to Come
TTITLE3=Here's that Rainy Day
TTITLE4=Fly me to the Moon
TTITLE5=Angel Eyes
TTITLE6=Teaching Brando to Sing
TTITLE7=Luck be a Lady
TTITLE8=Send in the Clowns
TTITLE9=I get a Kick out of You
TTITLE10=Where or When
TTITLE11=I've Got you under my Skin
TTITLE12=As Time goes by
TTITLE13=Summer me Winter you
TTITLE14=New York. New York
TTITLE15=Moonlight in Vermont
TTITLE16=I'm Gonna Sit Right Down and Write Myself a Letter
TTITLE17=Last Night When we were Young
TTITLE18=September of my Years
TTITLE19=Two Marvellous for Words
EXTD=
EXTT0=
EXTT1=
EXTT2=
EXTT3=
EXTT4=
EXTT5=
EXTT6=
EXTT7=
EXTT8=
EXTT9=
EXTT10=
EXTT11=
EXTT12=
EXTT13=
EXTT14=
EXTT15=
EXTT16=
EXTT17=
EXTT18=
EXTT19=
PLAYORDER=
